<svg xmlns="http://www.w3.org/2000/svg" xmlns:xlink="http://www.w3.org/1999/xlink" x="0px" y="0px" viewBox="0 0 50 50" style="enable-background:new 0 0 50 50;" xml:space="preserve"><g id="Iconly_Light-Outline_Buy" transform="translate(-2.39 -3)">	<g id="Buy" transform="translate(2.39 3)">		<path id="Combined-Shape" d="M12.9,43c1.8,0,3.2,1.4,3.2,3.2s-1.4,3.2-3.2,3.2c-1.8,0-3.2-1.4-3.2-3.2C9.7,44.4,11.1,43,12.9,43z    M41.1,43c1.8,0,3.2,1.4,3.2,3.2s-1.4,3.2-3.2,3.2s-3.2-1.4-3.2-3.2C37.9,44.4,39.3,43,41.1,43z M2.2,0.6l5.2,0.9   c0.8,0.1,1.5,0.8,1.5,1.7l0.6,7h36c2.9,0.4,4.8,3.1,4.4,5.9c0,0,0,0,0,0l-2.4,16.4c-0.5,3.1-3.1,5.5-6.3,5.5H14   c-3.3,0-6.1-2.6-6.4-5.9L5.3,4.9L1.5,4.3C0.5,4.1-0.1,3.1,0,2.1C0.2,1.1,1.2,0.4,2.2,0.6z M11.2,13.9H9.8l1.5,17.9   c0.1,1.4,1.2,2.4,2.6,2.4h27.3c1.3,0,2.4-1,2.6-2.3l2.4-16.4c0.1-0.4,0-0.8-0.3-1.1c-0.2-0.3-0.6-0.5-1-0.6L11.2,13.9L11.2,13.9z    M37.2,19.4c1,0,1.9,0.8,1.9,1.9s-0.8,1.9-1.9,1.9h-6.9c-1,0-1.9-0.8-1.9-1.9s0.8-1.9,1.9-1.9H37.2z"></path>	</g></g></svg>