<?xml version="1.0" encoding="UTF-8" standalone="no"?>
<svg
   width="24"
   height="24"
   viewBox="0 0 24 24"
   version="1.1"
   id="svg2"
   sodipodi:docname="eye.svg"
   inkscape:version="1.3.2 (091e20e, 2023-11-25, custom)"
   xmlns:inkscape="http://www.inkscape.org/namespaces/inkscape"
   xmlns:sodipodi="http://sodipodi.sourceforge.net/DTD/sodipodi-0.dtd"
   xmlns="http://www.w3.org/2000/svg"
   xmlns:svg="http://www.w3.org/2000/svg">
  <defs
     id="defs2" />
  <sodipodi:namedview
     id="namedview2"
     pagecolor="#ffffff"
     bordercolor="#cccccc"
     borderopacity="1"
     inkscape:showpageshadow="0"
     inkscape:pageopacity="1"
     inkscape:pagecheckerboard="0"
     inkscape:deskcolor="#d1d1d1"
     inkscape:zoom="49.208333"
     inkscape:cx="11.989839"
     inkscape:cy="12"
     inkscape:window-width="3440"
     inkscape:window-height="1377"
     inkscape:window-x="-8"
     inkscape:window-y="-8"
     inkscape:window-maximized="1"
     inkscape:current-layer="svg2" />
  <path
     style="color:#000000;fill:#000000;-inkscape-stroke:none"
     d="m 12,3.25 c -4.4808956,0 -7.5413278,2.6881517 -9.3183594,4.9960938 h -0.00195 C 1.8298883,9.3508327 1.25,10.230429 1.25,12 c 0,1.76865 0.5815079,2.649734 1.4316406,3.753906 C 4.4586722,18.061848 7.5191044,20.75 12,20.75 c 4.480896,0 7.541328,-2.688152 9.318359,-4.996094 h 0.002 C 22.170112,14.649167 22.75,13.769571 22.75,12 c 0,-1.76865 -0.579955,-2.6482537 -1.429688,-3.7539062 h -0.002 C 19.541328,5.9381517 16.480896,3.25 12,3.25 Z m 0,1.5 c 3.883096,0 6.513894,2.3120558 8.130859,4.4121094 C 20.980079,10.266962 21.25,10.491439 21.25,12 c 0,1.510425 -0.268941,1.732632 -1.119141,2.837891 C 18.513894,16.937944 15.883096,19.25 12,19.25 8.1169039,19.25 5.4861056,16.937944 3.8691406,14.837891 3.019275,13.734065 2.75,13.509346 2.75,12 2.75,10.489575 3.0189415,10.267368 3.8691406,9.1621094 5.4861056,7.0620558 8.1169039,4.75 12,4.75 Z"
     id="path1" />
  <path
     style="color:#000000;fill:#000000;-inkscape-stroke:none"
     d="M 12,8.25 C 11.083334,8.25 10.156589,8.5519994 9.4394531,9.1894531 8.7223174,9.8269068 8.25,10.812502 8.25,12 c 0,1.187498 0.4723174,2.173093 1.1894531,2.810547 C 10.156589,15.448001 11.083334,15.75 12,15.75 c 0.916666,0 1.843411,-0.301999 2.560547,-0.939453 C 15.277683,14.173093 15.75,13.187498 15.75,12 15.75,10.812502 15.277683,9.8269068 14.560547,9.1894531 13.843411,8.5519994 12.916666,8.25 12,8.25 Z m 0,1.5 c 0.583333,0 1.15659,0.198002 1.564453,0.560547 C 13.972316,10.673092 14.25,11.187501 14.25,12 c 0,0.812499 -0.277684,1.326908 -0.685547,1.689453 C 13.15659,14.051998 12.583333,14.25 12,14.25 11.416667,14.25 10.84341,14.051998 10.435547,13.689453 10.027684,13.326908 9.75,12.812499 9.75,12 c 0,-0.812499 0.277684,-1.326908 0.685547,-1.689453 C 10.84341,9.948002 11.416667,9.75 12,9.75 Z"
     id="path2" />
</svg>
