<svg xmlns="http://www.w3.org/2000/svg" xmlns:xlink="http://www.w3.org/1999/xlink" x="0px" y="0px" viewBox="0 0 100 100" style="enable-background:new 0 0 100 100;" xml:space="preserve"><path d="M66.2,17.4c0,2.3-0.3,4.3-1,6c-0.7,1.7-1.5,3.3-2.5,4.7c-1,1.5-2.1,2.9-3.3,4.2c-1.2,1.3-2.3,2.8-3.4,4.3 c-1.1,1.5-2,3.2-2.7,5.1s-1.2,4.1-1.4,6.6c2.5-0.2,4.6-0.7,6.5-1.5c1.9-0.8,3.5-1.7,5.1-2.8c1.5-1.1,3-2.2,4.3-3.4 c1.3-1.2,2.7-2.3,4.2-3.3c1.5-1,3-1.9,4.8-2.5c1.7-0.7,3.7-1,5.9-1c2.3,0,4.4,0.4,6.4,1.2c2,0.8,3.7,1.9,5.2,3.4 c1.5,1.5,2.6,3.2,3.5,5.2c0.8,2,1.3,4.2,1.3,6.6c0,2.4-0.4,4.6-1.3,6.6c-0.8,2-2,3.7-3.5,5.1c-1.5,1.4-3.2,2.5-5.2,3.3 c-2,0.8-4.1,1.2-6.4,1.2c-2.2,0-4.2-0.3-5.9-1c-1.7-0.7-3.3-1.5-4.8-2.5c-1.5-1-2.9-2.1-4.2-3.3c-1.3-1.2-2.8-2.3-4.3-3.4 c-1.5-1.1-3.2-2-5.1-2.7c-1.9-0.8-4-1.2-6.5-1.4c0.2,2.4,0.7,4.6,1.4,6.4c0.8,1.8,1.7,3.5,2.7,5c1.1,1.5,2.2,3,3.4,4.3 s2.3,2.7,3.3,4.2c1,1.5,1.8,3,2.5,4.8c0.7,1.7,1,3.7,1,5.9c0,2.3-0.4,4.4-1.2,6.4c-0.8,2-1.9,3.8-3.3,5.2c-1.4,1.5-3.1,2.6-5.1,3.5 c-2,0.8-4.2,1.3-6.6,1.3c-2.4,0-4.6-0.4-6.6-1.3c-2-0.8-3.7-2-5.1-3.5c-1.4-1.5-2.5-3.2-3.3-5.2c-0.8-2-1.2-4.1-1.2-6.4 c0-2.2,0.3-4.2,1-5.9c0.7-1.7,1.5-3.3,2.5-4.8c1-1.5,2.1-2.8,3.3-4.2c1.2-1.3,2.3-2.8,3.4-4.3c1.1-1.5,2-3.2,2.8-5 c0.8-1.8,1.3-4,1.5-6.4c-2.5,0.2-4.6,0.7-6.5,1.4c-1.9,0.8-3.5,1.7-5.1,2.7c-1.5,1.1-3,2.2-4.3,3.4c-1.3,1.2-2.7,2.3-4.2,3.3 c-1.5,1-3,1.8-4.8,2.5s-3.7,1-5.9,1c-2.3,0-4.5-0.4-6.5-1.2c-2-0.8-3.7-1.9-5.2-3.3c-1.5-1.4-2.6-3.1-3.5-5.1 c-0.8-2-1.3-4.2-1.3-6.6c0-2.4,0.4-4.6,1.3-6.6s2-3.7,3.5-5.2c1.5-1.5,3.2-2.6,5.2-3.4s4.1-1.2,6.5-1.2c2.2,0,4.2,0.3,5.9,1 c1.7,0.7,3.3,1.5,4.8,2.5c1.5,1,2.9,2.1,4.2,3.3c1.3,1.2,2.8,2.4,4.3,3.4c1.5,1.1,3.2,2,5.1,2.8c1.9,0.8,4,1.3,6.5,1.5 c-0.2-2.5-0.6-4.7-1.4-6.6S45,38.1,44,36.6c-1.1-1.5-2.2-2.9-3.4-4.3c-1.2-1.3-2.3-2.7-3.3-4.2c-1-1.5-1.9-3-2.5-4.8s-1-3.7-1-5.9 c0-2.3,0.4-4.4,1.2-6.4c0.8-2,1.9-3.7,3.3-5.2s3.1-2.6,5.1-3.5S47.6,1,50,1c2.4,0,4.6,0.4,6.6,1.3s3.7,2,5.1,3.5s2.5,3.2,3.3,5.2 C65.8,13,66.2,15.1,66.2,17.4z"></path></svg>