<svg xmlns="http://www.w3.org/2000/svg" xmlns:xlink="http://www.w3.org/1999/xlink" x="0px" y="0px"
    viewBox="0 0 50 50" style="enable-background:new 0 0 50 50;" xml:space="preserve"><g transform="translate(-2 -2)">	<g transform="translate(2 2)">		<path d="M24.1,0.5c12.7,0,23.1,10.3,23.1,23c0,5.8-2.2,11.3-6.1,15.6l7.4,7.4c0.7,0.7,0.7,1.8,0,2.5   c-0.7,0.7-1.8,0.7-2.5,0l0,0l-7.5-7.5c-9.9,8-24.5,6.3-32.4-3.6S-0.3,13.5,9.7,5.5C13.8,2.2,18.8,0.5,24.1,0.5z M24.1,4   C13.3,4,4.6,12.7,4.6,23.5S13.3,43,24.1,43s19.5-8.7,19.5-19.5C43.6,12.8,34.8,4,24.1,4z"></path>	</g></g></svg>