<?xml version="1.0" encoding="UTF-8" standalone="no"?>
<svg
   width="24"
   height="24"
   viewBox="0 0 24 24"
   version="1.1"
   id="svg1"
   sodipodi:docname="send.svg"
   inkscape:version="1.3.2 (091e20e, 2023-11-25, custom)"
   xmlns:inkscape="http://www.inkscape.org/namespaces/inkscape"
   xmlns:sodipodi="http://sodipodi.sourceforge.net/DTD/sodipodi-0.dtd"
   xmlns="http://www.w3.org/2000/svg"
   xmlns:svg="http://www.w3.org/2000/svg">
  <defs
     id="defs1" />
  <sodipodi:namedview
     id="namedview1"
     pagecolor="#ffffff"
     bordercolor="#cccccc"
     borderopacity="1"
     inkscape:showpageshadow="0"
     inkscape:pageopacity="1"
     inkscape:pagecheckerboard="0"
     inkscape:deskcolor="#d1d1d1"
     inkscape:zoom="49.208333"
     inkscape:cx="11.989839"
     inkscape:cy="12"
     inkscape:window-width="3440"
     inkscape:window-height="1377"
     inkscape:window-x="-8"
     inkscape:window-y="-8"
     inkscape:window-maximized="1"
     inkscape:current-layer="svg1" />
  <path
     style="color:#000000;fill:currentColor;stroke-linecap:round;stroke-linejoin:round;-inkscape-stroke:none"
     d="M 20.041016,2.3222656 3.109375,8.2480469 a 0.750075,0.750075 0 0 0 -0.00195,0 C 2.5916604,8.4301436 2.2712414,8.9293717 2.2519531,9.4082031 2.2326648,9.8870346 2.512275,10.411774 3.0117188,10.634766 a 0.750075,0.750075 0 0 0 0.00195,0 l 7.1660161,3.185547 3.185546,7.166015 c 0.22221,0.501147 0.744896,0.782976 1.22461,0.763672 0.479713,-0.0193 0.980886,-0.341994 1.162109,-0.859375 L 21.675781,3.9589844 a 0.750075,0.750075 0 0 0 0,-0.00195 C 22.010824,2.9907501 21.009741,1.9886429 20.042969,2.3222656 a 0.750075,0.750075 0 0 0 -0.002,0 z m 0.07031,1.5644532 -5.595703,15.9960932 -2.873047,-6.46289 2.888672,-2.888672 a 0.75,0.75 0 0 0 0,-1.0625 0.75,0.75 0 0 0 -1.0625,0 L 10.580078,12.357422 4.1191406,9.484375 Z m -9.964844,9.8574222 0.0039,0.0078 c -8.23e-4,-0.0017 -0.0031,-0.0022 -0.0039,-0.0039 z m 0.101563,0.105468 0.0078,0.0039 h -0.0039 c -0.0017,-7.78e-4 -0.0022,-0.0031 -0.0039,-0.0039 z"
     id="path1" />
</svg>
