<svg width="397" height="241" viewBox="0 0 397 241" fill="none" xmlns="http://www.w3.org/2000/svg">
<g clip-path="url(#clip0_6416_8)">
<path d="M63.2001 0C63.9001 0 63.9001 0.4 63.9001 0.8C64.0001 1.9 64.1001 3 64.1001 4.1C64.6001 11.4 65.2001 18.8 66.2001 26.1C66.8001 30.4 67.7001 34.8 69.3001 38.9C69.6001 39.7 69.9001 40.4 70.3001 41.2C72.9001 47 77.5001 50.6 83.5001 52.5C87.0001 53.6 90.7001 54.3 94.3001 54.8C100.6 55.6 107 55.9 113.3 56.1C116 56.2 118.8 56.3 121.5 56.4C121.8 56.4 122.1 56.5 122.4 56.5C122.5 57.2 122.1 57.2 121.7 57.2C120.6 57.3 119.6 57.4 118.5 57.4C111.1 57.9 103.7 58.5 96.4001 59.5C92.0001 60.1 87.7001 61 83.5001 62.6C80.5001 63.7 77.8001 65.2 75.5001 67.5C72.7001 70.2 71.1001 73.5 69.9001 77.1C68.8001 80.4 68.2001 83.8 67.8001 87.2C67.1001 92.9 66.7001 98.7 66.5001 104.5C66.4001 108 66.3001 111.5 66.1001 115C66.1001 115.2 66.1001 115.4 66.0001 115.6C65.9001 115.7 65.7001 115.8 65.4001 115.9C65.3001 114.9 65.2001 114.1 65.1001 113.2C64.6001 107.2 64.2001 101.1 63.6001 95.1C63.1001 89.8 62.3001 84.6 60.7001 79.5C60.0001 77 59.0001 74.7 57.7001 72.5C55.3001 68.5 51.8001 65.8 47.5001 64C44.0001 62.6 40.4001 61.9 36.8001 61.3C32.0001 60.6 27.2001 60.2 22.3001 60C17.4001 59.8 12.5001 59.6 7.6001 59.4C7.3001 59.4 6.6001 59.7 6.6001 59C6.6001 58.5 7.2001 58.7 7.5001 58.6C14.1001 58 20.7001 57.6 27.3001 56.9C32.5001 56.4 37.7001 55.6 42.8001 54C45.2001 53.3 47.6001 52.3 49.8001 51.1C54.0001 48.7 56.7001 45.1 58.4001 40.7C59.6001 37.6 60.3001 34.4 60.9001 31.1C61.8001 25.6 62.2001 20 62.4001 14.5C62.6001 10 62.7001 5.6 62.9001 1.1C63.2001 0.7 63.2001 0.4 63.2001 0Z" fill="black"/>
<path d="M58.2999 92.6C58.1999 92.7 57.9999 92.8 57.7999 92.8C56.9999 92.9 56.0999 92.9 55.2999 93C51.9999 93.3 48.6999 93.7 45.3999 94.1C43.6999 94.3 41.9999 94.8 40.3999 95.5C37.8999 96.6 36.1999 98.4 35.2999 100.9C34.5999 102.8 34.1999 104.7 34.0999 106.7C33.7999 110.4 33.6999 114.1 33.4999 117.8C33.4999 118.2 33.7999 118.8 33.0999 118.8C32.5999 118.8 32.7999 118.2 32.6999 117.9C32.2999 113.9 31.8999 110 31.4999 106C31.2999 104.2 30.7999 102.5 30.0999 100.9C28.9999 98.4 27.2999 96.8 24.7999 95.8C22.8999 95.1 20.9999 94.7 18.9999 94.6C15.2999 94.3 11.5999 94.2 7.8999 94H7.4999C7.1999 94 6.8999 94.1 6.8999 93.7C6.8999 93.3 7.1999 93.3 7.4999 93.3C8.4999 93.2 9.3999 93.2 10.3999 93.1C13.8999 92.8 17.3999 92.6 20.8999 91.8C22.1999 91.5 23.5999 91.1 24.8999 90.6C27.3999 89.6 28.9999 87.8 29.8999 85.3C30.5999 83.4 30.9999 81.5 31.0999 79.5C31.3999 75.8 31.4999 72.1 31.6999 68.4V68.1C31.6999 67.8 31.5999 67.4 32.0999 67.4C32.5999 67.4 32.3999 67.8 32.4999 68.1C32.8999 71.7 33.0999 75.4 33.5999 79C33.7999 80.8 34.2999 82.6 34.7999 84.3C35.7999 87.5 37.9999 89.5 41.0999 90.5C43.4999 91.2 45.8999 91.6 48.2999 91.7C51.2999 91.9 54.3999 92 57.3999 92.1H57.9999C58.0999 92.1 58.2999 92.2 58.3999 92.2C58.3999 92.4 58.3999 92.5 58.2999 92.6Z" fill="black"/>
<path d="M1.30016 240.6C0.800155 240.6 0.300155 240.2 0.300155 239.6C0.300155 239.2 -1.19984 197 2.70016 169.5C6.60016 141.9 21.6002 111.2 21.8002 110.9C22.0002 110.4 22.6002 110.2 23.1002 110.4C23.6002 110.6 23.8002 111.2 23.6002 111.7C23.5002 112 8.50016 142.4 4.70016 169.7C0.800155 197.1 2.30016 239.1 2.40016 239.5C2.30016 240.1 1.90016 240.6 1.30016 240.6Z" fill="black"/>
<path d="M395.3 239.3C394.7 239.3 394.3 238.8 394.3 238.3C394.3 237.7 395.4 179.5 388.6 152.2C378.7 112.8 356 77.4 321.1 47.1C289.3 19.5 248.2 5.59999 195.4 4.29999C131.3 2.69999 81.0001 43.2 80.5001 43.6C80.1001 43.9 79.4001 43.9 79.1001 43.5C78.8001 43.1 78.8001 42.4 79.2001 42.1C79.7001 41.7 130.6 0.799994 195.4 2.39999C248.7 3.69999 290.2 17.8 322.3 45.7C357.6 76.3 380.5 112 390.4 151.9C397.3 179.4 396.2 237.9 396.2 238.5C396.3 238.9 395.8 239.3 395.3 239.3Z" fill="black"/>
</g>
<defs>
<clipPath id="clip0_6416_8">
<rect width="396.3" height="240.6" fill="white"/>
</clipPath>
</defs>
</svg>
