<svg width="433" height="143" viewBox="0 0 433 143" fill="none" xmlns="http://www.w3.org/2000/svg">
<g clip-path="url(#clip0_6416_4)">
<path d="M432.9 44.2001C431.5 44.3001 430 44.3001 428.5 44.4001C425.6 44.6001 422.7 44.8 419.8 45.1C415.6 45.5 411.3 46 407.2 47.3C406.7 47.5 406 47.7001 405.5 47.9001C401.9 49.3001 399.5 51.7 398.1 55C397.1 57.3 396.6 59.7 396.2 62.1C395.4 67.3 395.2 72.5 395.1 77.8C395.1 78.6 395 79.3 395 80.3C394.7 80.1 394.5 80 394.4 79.8C394.3 79.6 394.3 79.4 394.3 79.1C394 75.7 393.8 72.3001 393.4 68.9001C393 65.2001 392.5 61.5001 391.3 57.9001C391 57.0001 390.7 56 390.2 55.1C388.7 51.7 386 49.4001 382.3 48.2001C379.7 47.3001 377.1 46.8 374.4 46.5C368.4 45.8 362.4 45.7 356.5 45.5C356.2 45.5 355.9 45.5001 355.5 45.4001C355.3 45.4001 355.2 45.1001 355 44.9001C355.8 44.8001 356.2 44.7001 356.7 44.7001C360.4 44.4001 364 44.2001 367.7 43.9001C371.7 43.5001 375.7 43 379.7 42C385.8 40.4 389.5 36.8001 390.9 31.2001C391.7 28.1001 392.1 25 392.3 21.9C392.5 17.7 392.7 13.6 392.9 9.40005C392.9 9.20005 393 9.00005 393 8.80005C393.5 8.60005 393.6 9.00005 393.6 9.30005C393.7 10 393.7 10.7 393.8 11.4C394.1 14.6 394.3 17.9 394.7 21.1C395.1 24.8 395.7 28.4 397 31.9C397.2 32.4 397.4 32.9001 397.6 33.4001C399.1 37.0001 402 39.4001 405.9 40.7001C408.5 41.6001 411.2 42.1001 413.9 42.4001C420 43.1001 426 43.2001 432 43.4001H432.9C432.9 43.7001 432.9 44.0001 432.9 44.2001Z" fill="black"/>
<path d="M395.3 143H0V1C0 0.4 0.4 0 1 0C1.6 0 2 0.4 2 1V141H393.3L393 89.4C393 88.8 393.4 88.4 394 88.4C394.5 88.4 395 88.8 395 89.4L395.3 143Z" fill="black"/>
</g>
<defs>
<clipPath id="clip0_6416_4">
<rect width="433" height="143" fill="white"/>
</clipPath>
</defs>
</svg>
