<svg xmlns="http://www.w3.org/2000/svg" id="_레이어_1" viewBox="0 0 68 15.2945058041"><defs><style>.cls-1{fill:#2e4369;}.cls-1,.cls-2{stroke-width:0px;}.cls-2{fill:#00b8fe;}</style></defs><path class="cls-1" d="M21.766206297,10.8783923243c.0241474163-.0497924539.0505415262-.0986343996.072123651-.1495142086,1.4445678432-3.4058524876,2.8892991123-6.8116373762,4.3304036469-10.2189528263.0447341287-.1057718676.0922646564-.1476852221.2128432644-.1470136629,1.0232096248.0056987216,2.0464605188.003257222,3.0697015082.0032573251h.1606922406c.3960156469,3.543592203.7908724556,7.0768325836,1.1857292642,10.6100729642.0086004949.0032068319.0172009898.0064144881.0258014846.00962132.0192149252-.040234611.0406121641-.0795871372.0573344315-.1208316118,1.359429547-3.3531969676,2.7184992268-6.7065398502,4.0775887158-10.0598762407.0253194607-.0624709812.0503714973-.125050162.0757800994-.1874861071q.1023508414-.251516503.3796466436-.2515038282c.9781618504.000000103,1.9563270023.0000003091,2.9344888527.0000006183h.1666779209c-.0193667958.0535743928-.0320050662.0944749985-.0486282875.1336878956-2.0194985451,4.7628889376-4.0397828552,9.5254468872-6.0562902109,14.2895979481-.0514411941.1215348065-.1101127467.1640760283-.245135564.1633472778-1.1719585678-.006337821-2.3439666586-.0036552937-3.5159582418-.0036552937h-.1751760682c-.4177628484-3.3387447903-.8343635569-6.6681897681-1.250960964-9.9976339215-.0093037215-.0023832779-.0186057923-.0047665558-.027907863-.0071498337-.0200931331.0414753005-.0419773482.0821884632-.0600235306.1245338951-1.3780617515,3.2334230333-2.7567970159,6.466561656-4.1302151605,9.7019516561-.0579633736.136551683-.1226866372.1834456226-.2735733232.1824233934-1.1223579786-.0076007686-2.244788591-.0041268382-3.3671977434-.0041268382h-.1732991464c-.6537960844-4.8615150934-1.306111431-9.7120354524-1.9599075154-14.5735545647h3.4005085661c.3690322133,3.5003937456.7378267161,6.9985469337,1.1066228698,10.4967001219.0094423859.0020345658.0188864226.0040691317.0283304593.0061045219Z"></path><path class="cls-1" d="M42.6968064368,14.9364748471c.0853941651-.4611325324.1678334576-.911243126.2522437657-1.3609876955.1408830393-.7506344332.2858533772-1.5005244526.4216718641-2.2520681751.0210769901-.1166355258.0662881905-.1237243555.1707421087-.116163157.3129127461.0226506203.6303452917.061884436.940035741.0322801841.5177696009-.0494923802.8810934627-.3567744738,1.1328353953-.8014631307.2780914718-.4912297626.4287107336-1.028778873.5427126868-1.5743961746.2269276065-1.0860591557.4291927575-2.1772459449.6540668102-3.2637494406.1954012627-.944067812.4630697932-1.8656432843.9080240718-2.7285205431.7274764085-1.4107531511,1.8699919002-2.2330351333,3.4471872981-2.4541039423.8093082189-.113437556,1.6155559162-.0854995789,2.4417481776.013523412-.233768384,1.246993581-.4659916504,2.4857680066-.7013579766,3.7413020446-.118993872-.0146784692-.232586435-.0305811403-.3465982929-.0424311672-.5351785873-.0556257553-1.0350769871.023216556-1.4506608234.3980057583-.3052895052.2753151732-.4893334925.6296705087-.6351094046,1.0064328605-.2607881345.6740319579-.3901059019,1.3817731597-.5361525397,2.0854303911-.2226587237,1.0727792445-.4244550569,2.1507149757-.6816907413,3.2152323-.2067816489.8557129985-.556258879,1.6608454374-1.0789906848,2.381253213-.6950949675.957944161-1.6453588594,1.4972360073-2.7977789518,1.7030519615-.8864716608.1583202184-1.7751058261.1294438927-2.6829285044.0173713011Z"></path><path class="cls-1" d="M37.4073105973,14.9415843443c.8891558076-4.8612735505,1.7764330426-9.7122757587,2.664634707-14.5683301697h3.505990912c-.884474233,4.8596210841-1.7674660775,9.7110812344-2.6515111112,14.5683301697h-3.5191145079Z"></path><path class="cls-1" d="M38.5150165839.3661642422h-3.101165402q-.2772644475,0-.3796480282.2515030247c-.0254075362.0624362518-.0504573805.1250171025-.0757773964.1874876015-1.3590919951,3.3533343423-2.7181611588,6.7066801004-4.0775918196,10.0598774544-.0167201908.0412411078-.0381170121.0805948205-.0573334353.120831347l-.0257994751-.0096234325c-.3948575418-3.5332381158-.7897150836-7.0664800368-1.185729416-10.6100721898h-.1606949607c-1.0232383856,0-2.0464919922.0024429591-3.0696999359-.0032572789-.1205802016-.0006735261-.1681075533.0412411078-.2128418644.1470151505-1.4411061672,3.407315368-2.8858387209,6.8130972273-4.3304038443,10.2189513861-.0215832777.0508797613-.047976369.0997199181-.0721243733.1495151882-.0094445866-.0020357993-.0188891732-.0040715986-.0283299546-.0061073979-.3687955057-3.4981500686-.7375910113-6.9963039425-1.1066224414-10.4966990981h-3.4005116126c.6537959905,4.8615191448,1.3061117456,9.7120411683,1.959907736,14.5735565079h.1733016954c1.122406545,0,2.2448397267-.0034741771,3.3671968037.0041248718.1508850718.0010236075.2156082683-.0458720756.2735733722-.1824228373,1.3734186948-3.2353911667,2.7521532991-6.4685296358,4.1302143773-9.7019496922.0180482169-.0423484305.0399321079-.083060611.0600237346-.124533838.009303793.0023820754.0186037808.0047641509.0279075738.0071462263.416596834,3.3294450939.8331974733,6.6588901877,1.2509625136,9.9976352694h.1751738697c1.1719925273,0,2.3440002756-.0026826888,3.5159585559.0036568283.1350248635.0007267994.1936939354-.0418118927.2451368711-.1633472077,2.0165067615-4.7641508603,4.0367921187-9.5267111336,6.0562897928-14.2895986568.01662506-.039212919.0292622365-.0801153612.0486270638-.133689227Z"></path><path class="cls-1" d="M51.16632574.4173027593c-1.5771964958.2210687767-2.7197098884,1.0433490384-3.4471865922,2.4541046727-.4449534252.8628744801-.7126248821,1.7844522792-.9080235615,2.7285190012-.224874009,1.0865041781-.4271411328,2.177688792-.654066162,3.2637477579-.1140047602.5456170409-.2646234658,1.0831669894-.5427136487,1.5743958448-.2517427544.4446908642-.615066336.7519709842-1.1328366868.801465641-.3096888321.0296047074-.6271213119-.009631043-.9400331758-.0322797857-.1044574323-.0075609966-.1496673975-.0004718488-.1707445793.1161623269-.1358163518.7515447982-.2807880926,1.5014343204-.4216730139,2.2520696681-.0844076632.4497442127-.1668480214.8998537278-.2522412398,1.3609870008.9078218842.1120717022,1.7964577871.1409496102,2.6829285128-.0173708855,1.1524184123-.2058174055,2.1026838578-.7451101504,2.7977780346-1.7030545547.5227323738-.7204065822.872208715-1.5255404671,1.0789926495-2.3812535.2572337046-1.0645175458.4590289796-2.1424523407.6816883433-3.2152310459.1460486215-.7036559495.2753656366-1.4113987185.5361534282-2.0854309345.1457746448-.3767598569.329818511-.7311183111.6351084946-1.0064306745.4155846422-.3747887466.9154818169-.4536331602,1.4506611056-.3980082742.1140123707.0118494934.2276061658.0277553645.3465995856.0424321456.2353650345-1.2555325976.4675869471-2.4943069521.7013575892-3.7413006084-.8261920406-.0990235606-1.6324408586-.1269615762-2.4417490834-.0135237957Z"></path><path class="cls-1" d="M40.0719464123.37325339c-.8882021064,4.8560548312-1.7754795414,9.707056314-2.6646367611,14.5683281187h3.5191168987c.8840429875-4.857245869,1.7670357308-9.7087077848,2.6515087096-14.5683281187h-3.5059888472Z"></path><path class="cls-1" d="M67.6775940638,4.4845329313c-.8290459648-2.5468724313-2.5991030501-3.9991203188-5.2321944353-4.4040236739-.9279287318-.1426924066-1.8611619574-.0870599102-2.7821042827.0987381681-2.3654579806.4772256005-4.1491834604,1.7565294844-5.3071232648,3.879274527-.5715496992,1.0477554974-.8819805516,2.1783128501-1.0051330903,3.3622728331-.0996932815.9584124479-.0993850576,1.9133811605.1115503854,2.8592553679.3047001725,1.3663485731.9505127856,2.5362139756,2.0206468543,3.4554135045,1.1016680289.9462927829,2.3984265134,1.4188379477,3.8322761026,1.5304568273,1.0956709828.0852980876,2.178114978-.0197795976,3.2359467306-.3222232673,1.6691879871-.4772370162,3.0345205632-1.3880992811,4.0089948966-2.8442893892.2554071931-.3816686066.4679522494-.7863017902.6428026743-1.2321456398-.0436384042-.0055251973-.0651684087-.0106318191-.0867060236-.0106394296-1.2484053975-.0004185756-2.4968260159-.0012861685-3.7452161925.002964276-.0467282528.0001560145-.1094384814.0391710615-.1373764971.0791374165-.2259623054.3231289126-.5120244501.5789546813-.8500356263.7786-.6002297351.3545144688-1.2577510481.5010767967-1.9468253473.5250954231-.6110365949.02129408-1.2052997258-.0661197167-1.7628575858-.3262339822-1.0290185335-.4800643038-1.6052562789-1.3123256899-1.8372156305-2.4017332603-.0432692967-.2032336528-.0619758187-.4116842791-.0950889504-.6387881542h11.0350215087c.1146592602-.5855872012.1856420638-1.1589253596.2123015214-1.73934125.0414465904-.9020607625-.0318041317-1.7920589386-.3116637477-2.6517902968ZM57.0569471334,6.2235431261c.1462350779-.7158364982.4680093278-1.3264240757.9594360554-1.8419227028.954139172-1.000886451,2.1373000562-1.4584694423,3.5111639631-1.3936282836,1.6207093273.0764889748,2.8458951972,1.2917127465,2.974078253,2.9142371696.0080899239.1023417232.0147490805.204793798.0230901497.3213138168h-7.4677684212Z"></path><polygon class="cls-2" points="7.8119897366 14.8169194236 5.6922622433 15.0039542025 11.1786157554 2.0362095374 5.3805376119 2.0362095374 6.5650912111 4.1559370307 4.3830187915 6.4003543766 7.8743346629 6.338070334 7.1261955476 8.0836065023 0 8.1737752872 4.1125428784 3.8951111868 1.9515666668 .2905516017 13.9938179488 .2905516017 7.8119897366 14.8169194236"></polygon></svg>