<svg xmlns="http://www.w3.org/2000/svg" id="_레이어_1" viewBox="0 0 68.3685525441 16.2350106209"><defs><style>.cls-1{fill:#212e61;fill-rule:evenodd;stroke-width:0px;}</style></defs><g id="remitly-horizontal-blue"><path id="Logotype" class="cls-1" d="M50.2634017062,4.3360588636c.0862169819,0,.15588659.0708736147.15588659.1574400112v6.6432850795c0,.0868709063-.0696696081.1571369046-.15588659.1571369046h-2.108252184c-.0861159464,0-.1559876255-.0702659983-.1559876255-.1571369046v-6.6432850795c0-.0865663965.0698716791-.1574400112.1559876255-.1574400112h2.108252184ZM59.8429728142,2.3192873318c.0861103333,0,.1559820124.0701677693.1559820124.1568927354v8.6607456175c0,.0864232628-.0698716791.1569951742-.1559820124.1569951742h-2.1081679877c-.0861103333,0-.1559763993-.0705719114-.1559763993-.1569951742V2.4761800672c0-.0867249661.069866066-.1568927354.1559763993-.1568927354h2.1081679877ZM49.2596418238.9075473998c.751822186,0,1.3613246079.6094575172,1.3613246079,1.3611155205,0,.7518628809-.6095024219,1.3615252757-1.3613246079,1.3615252757s-1.3613189948-.6096623948-1.3613189948-1.3615252757c0-.7516580033.6094968088-1.3611155205,1.3613189948-1.3611155205ZM68.3674411533,5.203346413c0,.0022185718.0011113908.0058502376.0011113908.0079677738v6.2103029472c0,1.5045158034-.6458190803,2.5441741695-2.0560841742,3.0252716644-.8926544827.3048971512-1.7418636893.3298080213-2.5425758436.2051470219-.0821418824-.013112166-.1396310965-.0885548317-.1323565387-.1707556515l.159333024-1.8318021464c.0082849131-.0947067726.0920433639-.1549211394.186612616-.1393897339.2538012406.0422609152.7225106574.0464959876.7283707179.0464959876.1982317014.0058516409.3833287845-.0435687639.5480223045-.1271812745.0083859486-.0038337369.0162667196-.0080688093.0244505972-.0121046173.3423083611-.1845722597.6142959963-.5358643629.626925437-.950093179v-.6177620761c0-.3085274137-.2154077408-.2434745679-.3601916491-.1308143436-.4563830827.35573065-.9709570151.7000639314-1.7157965237.7000639314-.8260720712,0-1.4540134766-.3415098998-1.8768471516-.8996638223-.2425919103-.319623079-.4468857433-.994774737-.4468857433-2.4176959338v-3.6085385281c0-.0868400343.0703207259-.1567355691.1576154201-.1567355691h2.1371202789c.0873957297,0,.1582216332.0698955347.1582216332.1567355691v3.6085385281c0,.7559393837.3744432713,1.1526188903.9552965086,1.1526188903.5812629925,0,.9944982926-.3966795066.9944982926-1.1526188903v-3.6085385281c0-.0868400343.070724868-.1567355691.1579241398-.1567355691h2.1370136303c.0873957297,0,.1582216333.0698955347.1582216333.1567355691v.7105519803ZM56.1089411468,4.3435088304c.0877718064,0,.1589850128.069762224.1589850128.1560872578v1.810217029c0,.0864246661-.0712132064.1560872578-.1589850128.1560872578h-.9689531438c-.0878728419,0-.1589850128.0696625917-.1589850128.1559876255v2.0240208308c0,.9260874188.7486058884.7668877055,1.1037569875.7146902271.0967134504-.0142530255.1831661819.0579186151.1831661819.1538799122v1.4648158582c0,.0683575495-.0464258241.1190479147-.1108359717.1496630823-.293895505.1392241479-1.0021713795.2658006125-1.8261553832.2658006125-1.1266190817,0-1.816607526-.798506212-1.816607526-1.783314917v-2.989555606c0-.0863250338-.0710111353-.1559876255-.1590860483-.1559876255h-.6676427539c-.0878728419,0-.1590860483-.0696625917-.1590860483-.1560872578v-1.810217029c0-.0863250338.0712132064-.1560872578.1590860483-.1560872578h.6676427539c.088074913,0,.1590860483-.0700639273.1590860483-.1560872578v-1.7121466153c0-.0860247338.0712132064-.1559876255.1592937324-.1559876255h2.1484923887c.0875697354,0,.1588895903.0699628917.1588895903.1559876255v1.7123472831c0,.0858226627.0711121708.15588659.1589850128.15588659h.9689531438ZM22.7089117465,6.627143251c.8515582826,0,1.3417377486-.4102519456,1.3417377486-1.0641061567v-.0256153123c0-.704982397-.5157975849-1.0640037179-1.3547993969-1.0640037179h-1.4805577544c-.087283468,0-.1578567827.0701635595-.1578567827.156729956v1.8400632039c0,.086667432.0705733147.156932027.1578567827.156932027h1.4936194027ZM18.554297251,2.4762193588c0-.086667432.0704750857-.156932027.1577557472-.156932027h4.112999085c1.3807206223,0,2.3353575935.3591223565,2.9419776963.9745016781.5290613042.5127145981.7998168673,1.205143331.7998168673,2.0899408983v.025411838c0,1.3014287837-.6622092878,2.1875426194-1.688233471,2.6800080142-.0877858391.0418146749-.1199852999.1487313102-.0651061701.2283122227l1.8809222512,2.7306310224c.071485441.1042840985-.0031377144.2458278537-.1303161824.2458278537h-2.4769111715c-.0711823344,0-.137708615-.0354368074-.1770956308-.0943629712l-1.6755759648-2.5036350681c-.0500210049-.0751255264-.1348740072-.1199768802-.2255982962-.1199768802h-.7936396675c-.087283468,0-.1578567827.070062524-.1578567827.156729956v2.4043115332c0,.086667432-.0709802634.1569334303-.1580616603.1569334303h-2.1873209025c-.0872806615,0-.1577557472-.0702659983-.1577557472-.1569334303V2.4762193588ZM32.0705772909,7.0014504051v-.0002020711c0-.6808054376-.498324052-1.2177671586-1.239947263-1.2177671586-.6878695048,0-1.2201920112.536961721-1.2201920112,1.2177671586v.0002020711c0,.0864695707.0655860889.1564156232.1464201225.1564156232h2.1673018357c.0808312271,0,.146417316-.0699460525.146417316-.1564156232ZM30.7251264867,4.1343821314c2.3269604187,0,3.5599895547,1.7014059776,3.5599895547,3.7063170614v.4486678977c0,.0868737129-.0703010801.1577318916-.156849234.1577318916h-4.4410081127l-.0007044421.0004055454h-.0045129201c-.0859447473,0-.1555441918.0702505623-.1555441918.1567201331,0,.6806033666.6238859516,1.0941950976,1.4137452065,1.0941950976l.0007044421-.0007086519c.0011029712,0,.0031068424.0007086519.0031068424.0007086519.4231115228,0,.7251768727-.1632060525.9650632761-.4138962409.052148364-.0539291151.1215457374-.087381697.1962615087-.087381697h1.8567130166c.1105160259,0,.1902442818.1135358655.1480226582.2159199348-.4916051896,1.1871533943-1.5678861271,1.9816967684-3.3849876046,1.9816967684-2.0301096245,0-3.4987115084-1.5492492825-3.4987115084-3.5540593307,0-2.0049110837,1.3396328419-3.7063170614,3.4987115084-3.7063170614ZM41.9651350699,5.1345398167c.5835306787-.6172835606,1.2694103449-1.0001576853,2.229040155-1.0001576853,1.4879838656,0,2.3932453366.9191398231,2.3932453366,2.5275327764v4.3749617508c0,.0864457151-.0709662306.1562051326-.1582328594.1562051326h-2.1411673131c-.0876707709,0-.1582328594-.0697594174-.1582328594-.1562051326v-3.5963455047c0-.7533854301-.3754873051-1.1489254805-.957704522-1.1489254805-.5819084972,0-1.009030569.3955400504-1.009030569,1.1489254805v3.5963455047c0,.0864457151-.0710672662.1562051326-.1582328594.1562051326h-2.1411673131c-.0877718064,0-.158535966-.0697594174-.158535966-.1562051326v-3.5963455047c0-.7533854301-.3751841985-1.1489254805-.9574014154-1.1489254805s-.9959745339.3955400504-.9959745339,1.1489254805v3.5963455047c0,.0864457151-.0709662306.1562051326-.1584349305.1562051326h-2.1413693841c-.0875697354,0-.1584349305-.0697594174-.1584349305-.1562051326v-6.5928992242c0-.0865453474.0708651951-.1563047648.1584349305-.1563047648h2.1465334221c.084634092,0,.1532708925.067547862.1532708925.1508769118v.4917356938c0,.1141897898.1448737177.163141502.2171590232.0743845993.4158790631-.5083223593,1.0524590058-.8425450717,1.7712425749-.8693840365.0322976897-.0007030389.0635794111-.0009037066.0942549193-.0009037066.8683105341,0,1.5454843058.3552310855,1.9374740802.9823656099.0420139394.0678495653.1378854272.0763940836.1932641214.0177920754Z"></path><path id="Mark" class="cls-1" d="M12.766171248,9.0168776031l-5.34424747-3.8725794385c-.2694491176-.1949662894-.6340077467-.1949662894-.9030513189,0l-2.3819335675,1.7257316837c-.1391245156.1005107023-.309010139.1413809757-.4785912525.1145378011-.1696835523-.0266411035-.3185229144-.1176656926-.4196033448-.2564225512-.1010818337-.1385547875-.1418580879-.3080909964-.1148423109-.4771220276.0269147414-.1691320668.1179786221-.3177777774.257104541-.4184905507l1.688834071-1.2237857887h.0004041421l1.4701791607-1.065349455c.8213977749-.5954949689,1.9537281704-.5216253701,2.6883125731.1763968017.1622967328.1546011936.4153528364.1640873068.5968743845.0322934799l2.9405603924-2.1305992777v7.3953893231ZM12.6988843944,10.5305890427l-.0076899261.0511632676c-.0180095825.111913684-.0926832556.2733754704-.1747409417.3511812448-.2162272512.2056620224-.5331307906.2219090962-.7636236967.0546953012l-2.6085815106-1.8920389656-.019021341-.0135219212c-.1581486631-.1148409077-.4164670337-.1134278136-.5603472354.0188697877-.2093470125.1926452788-.1819270935.5151675161.0362226392.673097269l.0319735341.0231104732,2.3923542594,1.7336026318c.1330553677.0966755621.2313025936.2395692642.253865791.4026462157.0314683564.2250397942-.0596965597.4366558963-.2383849033.566332187l-.0548412414.0398613214c-.2081317797.1506636146-.4899240707.1506636146-.6981568859,0l-2.9668675174-2.1501777174c-.1581486632-.11433573-.4169722113-.1132257425-.5605507097.0189708232-.2096487158.1930494209-.1819256902.5150664806.0360219715.6729962334l2.4243277935,1.7567145083c.1334595098.0967751944.2313025936.2397713352.2537647555.4027472513.0319735341.2254411298-.0590903466.4365548608-.2380817967.5665314515l-.055144348.0397602859c-.2080307442.1507646501-.489925474.1507646501-.6978551826,0l-.5405148036-.3918494472-2.4265547848-1.7582272347c-.1581472599-.1146374334-.4166677015-.1130236715-.5603472354.0191742975-.2098521902.1925442433-.1819256902.5148644095.0360205682.6727941624l2.4243277935,1.7569151761c.1332574388.0964720878.2311005225.2395692642.2540692654.4022420736.0314683564.2255449719-.0595969275.4370600384-.2386894131.5667335226l-.0532218664.0387527372c-.1864779019.1349217184-.4298219656.1490498528-.6288479185.0426875096L.9478760106,10.9919677708V1.6214882801l2.5212601542,1.827251338.7946851045.5755123871-1.4400256693,1.0437545146c-.3437158421.2486526386-.5693534299.6164850993-.6357281572,1.0351777211-.0668813082.4183895152.0340980867.8375873146.2841189146,1.180694137.2496180891.3427054868.6181227168.5678449133,1.0377260616.6345480061.0842846775.0132202179.168569355.019880143.2522478194.019880143.333293747,0,.6570775251-.1041423681.9319895774-.3033479398l2.0139327142-1.4592168062c.1564282527-.1134278136.3681018888-.1134278136.5243266672,0l5.2840443294,3.8305977743c.1438802017.1331058855.2131905723.3274659617.1824308678.5242494873h0ZM12.0870357031.9450610486l-2.3948843574,1.735419868c-.0731553337.0529791005-.1727188279.0580252637-.2486049274.0085767935-.9742841711-.633134912-2.2420989967-.6610880741-3.2506833255-.0490443281-.030658669.01362436-.0603055794.0298714338-.0886362215.0502553511l-1.0345897505.7498926881L1.6269105199.9450610486h10.4601251831ZM13.5750223752.1382516809c-.0885351859-.0888032107-.2092445737-.1382516809-.335115193-.1382516809H.4738369698c-.2617591915,0-.4738369698.2115164698-.4738369698.4722779355v10.7604715258c0,.1512698278.0727497883.2932556134.1950799543.3822622984l6.1409560915,4.4512211204h.0003031066c.3103264074.2250369877.7309401074.2250369877,1.0413675503,0l6.1407554238-4.4497083941c.1228339404-.0893083884.195585132-.2311931384.195585132-.3823633339V.4726820776c0-.1253359729-.0498834843-.2455247471-.1390248834-.3344303966h0Z"></path></g></svg>