<svg width="99" height="76" viewBox="0 0 99 76" fill="none" xmlns="http://www.w3.org/2000/svg">
<path opacity="0.68" d="M29 1.69996C27.9 3.79996 26.4 5.49996 25 7.39996C21.9 11.5 19.9 16.2 17.5 20.7C16.5 22.7 15.7 24.8 15.3 27C15.2 27.8 15.2 29.4 14.9 30.5C14.8 30.6 14.7 30.7 14.6 30.8C14.5 30.8 14.6 30.9 14.7 30.9C14.8 30.9 14.8 30.8 14.9 30.8C14.8 31.3 14.5 31.7 14.1 31.9C14 32 13.9 32.1 14 32.3C13.5 32.9 13 33.4 12.5 34C12.4 34.1 12.2 34.2 12.1 34.3C12 34.4 12.1 34.4 12.1 34.4C11.6 35 11.1 35.6 10.5 36.3C9.5 36.9 8.5 37.5 7.5 38.1C6.2 38.4 4.8 39 3.4 39C3.2 39 3 39 2.7 39C2.7 39 2.7 39 2.6 39C2.5 39 2.5 39 2.4 39C1.6 38.9 0.9 38.8 0.1 38.7C0.1 38.7 0.1 38.7 0.2 38.8C0.2 38.9 0.2 38.9 0.2 39C1 39 1.7 39.1 2.4 39.2C2.8 39.3 3.3 39.3 3.7 39.4C3.9 39.4 4.1 39.4 4.3 39.4C4.4 39.4 4.4 39.4 4.5 39.4C4 39.6 3.4 39.6 2.9 39.6C2.9 39.6 2.8 39.6 2.8 39.7C2.5 39.7 2.2 39.6 2 39.6C1.4 39.5 0.8 39.4 0.2 39.4C0.2 39.5 0.2 39.6 0.2 39.6C0.1 39.7 0.1 39.8 0 39.9C1.2 40.1 2.4 40.2 3.6 40.3C3.7 40.3 3.8 40.3 3.9 40.3C4 40.4 4.1 40.4 4.2 40.4H4.3C7.9 40.7 11.7 41.1 15.3 40.8C15.4 40.9 15.5 40.8 15.6 40.8C16.4 40.7 17.1 40.6 17.9 40.5C18.1 40.5 18.3 40.6 18.5 40.6C24.1 43.3 26.5 49.5 30.1 54.1C33.9 58.9 39.3 61.6 43.9 65.6C48.2 69.3 53.2 71.4 58.8 72.2C61.9 72.7 65.1 72.7 68.2 73.2C70 73.5 71.7 73.9 73.4 74.5C74.7 75 75.5 75.4 76.9 75.3C77.1 75.3 77.2 75.1 77.1 75C76.9 73.5 75.6 72.8 74.3 72.3C71.6 71.2 68.8 70.7 66 69.8C60 67.8 55.3 63.4 51.5 58.4C49.9 56.3 48.4 54.1 46.3 52.4C44 50.4 41.1 49.1 38.3 47.8C36.6 47 35 46.3 33.3 45.6C33.2 45.5 33.1 45.5 33 45.4C33 45.4 33 45.4 32.9 45.4C31.6 44.9 30.3 44.4 29 43.9C27.6 43.4 25.8 43 24.2 42.5C23.9 42.2 23.5 41.8 23.2 41.6C23.5 41.6 23.7 41.7 24 41.8C28.3 42.7 32.4 44.4 36.5 46C40.4 47.5 44.3 49 48.5 49.6C49.1 49.7 49.7 49.8 50.2 49.8C51.7 50.6 53.2 51.3 54.8 51.8C55.6 52.1 56.5 52.3 57.4 52.5C58 52.6 58.6 52.7 59.2 52.9C59.3 53.3 59.5 53.8 59.8 54.1C60.2 54.6 60.8 54.9 61.4 55C61.7 55 61.9 55 62.2 55C62.1 55.9 62.7 56.6 63.5 57C64.2 57.3 65 57.3 65.8 57.1C66.6 56.8 67.3 56.2 67.6 55.4C67.7 55.2 67.7 55 67.7 54.8C67.7 55 67.7 55.2 67.8 55.4C68.1 56.2 68.8 56.6 69.6 56.6C71.1 56.6 73.1 55.4 72.6 53.7C72.8 53.7 72.9 53.7 73.1 53.7H73.2C73 54 72.9 54.4 72.9 54.8C73.1 55.5 73.6 56 74.3 56.1C74.6 56.2 74.9 56.1 75.2 56C75.5 55.9 75.7 55.6 75.7 55.3C75.7 55.3 75.8 55.3 75.8 55.2C75.9 54.9 75.9 54.5 75.7 54.2C75.4 53.6 74.8 53.2 74.1 53.2C73.9 53.2 73.7 53.3 73.5 53.4C73.4 53.4 73.2 53.4 73.1 53.4C72.9 53.4 72.8 53.4 72.6 53.3H72.5C72.2 52.6 72 51.9 71.3 51.6C70.5 51.3 69.6 51.4 68.9 51.9C68.7 52 68.6 52.2 68.5 52.4H68.4C68.2 52.4 68 52.4 67.8 52.3C67.4 52.2 67.1 52.1 66.7 52.1C66.6 52.1 66.6 52.1 66.5 52.2C66.1 51.9 65.6 51.7 65.1 51.7C64.9 50.8 64.3 50.1 63.6 49.6C62.3 48.7 60.7 49.6 59.9 50.7C59.8 50.8 59.8 50.9 59.7 51C58.5 50 57 50 55.8 49.8C53.4 49.4 50.9 49.2 48.5 48.8C43.5 48.1 38.9 46.1 34.2 44.3C30.2 42.7 26 41.5 21.8 40.7C21.2 40.6 20.5 40.4 19.7 40.2C22.8 40.1 25.9 40 29 40.1C32.4 40.3 35.8 40.8 39.2 41.1C42.5 41.4 45.8 41.6 49.1 41.6C50.9 41.6 53.1 41.7 54.9 41.2C56.2 41.1 57.5 41.1 58.8 41C60.3 40.9 61.7 40.6 63.1 40.5C64.4 40.3 65.7 40.1 67 39.8C67.8 39.6 68.8 39.5 69.5 39C69.7 39.6 70.1 40 70.6 40.3C71.7 40.7 73 40.3 73.9 39.6C74.6 39.1 75.2 38.3 75 37.5C75.3 37.5 75.7 37.4 76 37.4C76.2 37.4 76.4 37.3 76.6 37.3C76.8 37.3 77 37.2 77.2 37.1C77.6 37.6 78.2 38 78.9 38.2C79.7 38.4 80.6 38.3 81.3 37.8C81.3 38 81.4 38.1 81.5 38.3C80.7 38.4 79.9 38.4 79.1 38.4C78.2 38.4 77.3 38.4 76.4 38.5C76.3 38.5 76.2 38.6 76.2 38.8C76.2 38.9 76.3 39 76.4 39C78.1 38.8 80 39.1 81.7 38.6C81.8 38.7 81.8 38.8 81.9 38.8C83 39.8 85.2 39.7 85.8 38.1C86 37.9 86.1 37.7 86.2 37.4C86.2 36.9 86.1 36.3 85.8 35.9C86.2 35.9 86.5 35.8 86.9 35.8C87.2 35.8 87.5 35.8 87.8 35.8C87.9 35.8 88.1 35.8 88.2 35.8C88.2 35.9 88.2 36.1 88.2 36.2C88.3 36.5 88.4 36.8 88.6 36.9C89 37.2 89.5 37.4 90.1 37.4C90.7 37.4 91.2 37.2 91.6 36.8C92 36.3 92.1 35.7 92 35.1C91.9 34.8 91.8 34.6 91.5 34.4C91.3 34.3 91.1 34.2 90.8 34.2C90.8 34.1 90.8 34 90.9 33.9C91 33.8 91 33.8 91.1 33.7C91.1 33.8 91.1 34 91.3 34C91.8 34 92.3 34 92.8 33.9C93 33.9 93.3 33.8 93.5 33.8C93.6 33.8 93.7 33.7 93.8 33.7C93.8 33.7 93.9 33.7 93.9 33.6C94.1 34.1 94.4 34.5 94.8 34.8C95.1 35 95.5 35.1 95.9 35.1C96.2 35.1 96.4 34.9 96.6 34.8C97.1 34.6 97.5 34.3 97.7 33.9C98 33.4 98.1 32.9 98 32.3C97.9 31.8 97.5 31.4 97.1 31.2C96.6 30.9 96 30.9 95.4 31C94.9 31.1 94.5 31.3 94.2 31.7C94 32 93.8 32.4 93.8 32.8C93.8 33 93.8 33.1 93.9 33.3H93.8C93.7 33.3 93.6 33.4 93.5 33.4C93.3 33.4 93 33.5 92.8 33.5C92.3 33.5 91.8 33.5 91.3 33.6C91.3 33.6 91.3 33.6 91.2 33.6C91.5 32.9 91.5 32.2 91.3 31.5C90.9 30.5 90.1 29.8 89 29.7C87.2 29.5 85.5 30.5 84.8 32.2C84.7 32.4 84.7 32.6 84.7 32.8C84.6 32.8 84.6 32.8 84.5 32.8C84.3 32.8 84.1 32.9 83.9 33C83.5 33.1 83.1 33.3 82.7 33.4C82.6 33.5 82.5 33.6 82.6 33.8C82.7 33.9 82.8 34 83 33.9C83.3 33.7 83.7 33.6 84.1 33.5C84.3 33.4 84.4 33.4 84.6 33.3H84.7C84.8 34 85.2 34.6 85.8 35C86.2 35.2 86.5 35.4 86.9 35.5C86.8 35.5 86.8 35.5 86.7 35.5C86.2 35.5 85.8 35.5 85.3 35.6C85.2 35.5 85.1 35.4 85 35.3C84.4 34.7 83.5 34.6 82.7 34.9C82.7 34.2 82.4 33.6 81.9 33.1C81.3 32.5 80.6 32.2 79.8 32.1C79.1 32.1 78.3 32.3 77.8 32.8C76.8 33.6 76.3 34.9 76.6 36.1C76.7 36.4 76.8 36.6 76.9 36.8C76.8 36.8 76.7 36.8 76.5 36.9C76.3 36.9 76.1 37 75.9 37C75.5 37.1 75.1 37.1 74.8 37.2C74.8 37.2 74.8 37.2 74.8 37.1C74.8 37.1 74.8 37.1 74.7 37.1C74.7 36.7 74.5 36.4 74.3 36.1C73.8 35.6 73.2 35.4 72.6 35.3C71.4 35.1 70 35.7 69.5 36.9C69.3 37.5 69.2 38.1 69.4 38.8C68.6 39.3 67.4 39.4 66.5 39.6C65.2 39.9 63.9 40.1 62.6 40.3C61.3 40.5 59.9 40.7 58.5 40.8C57.5 40.9 56.6 40.9 55.6 41C57.5 40.4 59.4 39.5 61 38.3C61.6 39.1 62.6 39.4 63.5 39.1C63.9 38.9 64.3 38.6 64.5 38.2C64.6 38.1 64.6 38 64.7 37.8C64.8 37.8 64.9 37.7 64.9 37.6C65.2 36.7 65 35.5 64.1 35C63.2 34.5 62.1 35 61.3 35.6C60.9 35.9 60.6 36.3 60.5 36.8C60.5 37.2 60.6 37.7 60.8 38C58.7 39.3 56.5 40.3 54.1 40.9C54 40.9 53.9 41 53.9 41.1C53.3 41.1 52.7 41.1 52.2 41.2C50.5 41.3 48.8 41.3 47 41.2C43.8 41.1 40.6 40.8 37.4 40.5C31.3 39.8 25.2 39.6 19.1 39.8C19.3 39.7 19.4 39.7 19.6 39.6C20.3 39.5 21 39.5 21.6 39.4C21.6 39.4 21.6 39.5 21.7 39.4C22.4 39.3 23.1 39.2 23.8 39.3C23.9 39.3 23.9 39.2 23.8 39.2C23.2 39.1 22.6 39.1 22 39.2C21.4 39.2 20.8 39.2 20.2 39.2C20.8 38.9 21.4 38.5 21.9 38.1C24.4 37.1 26.9 36.2 29.3 35.2H29.4C29.4 35.3 29.5 35.3 29.6 35.3C31.9 35.4 34.1 35.2 36.3 34.6C38.9 34.4 41.6 34.2 44.2 33.9C49.6 33.2 55 32.7 60.4 31.8C64.8 31.1 69.2 30.2 73.1 28.2C75.1 27.2 76.8 25.8 78.8 24.7C80.4 23.7 82.2 23 83.8 22.1C84.9 21.5 88.4 20 87.7 18.3C87 16.6 83.7 17.5 82.4 17.6C78 18 73.6 18.8 69.5 20.7C65 22.8 61 25 56.2 26.3C52.7 27.4 49.4 28.7 46.1 30.2C45.9 30.2 45.7 30.3 45.5 30.3C45.4 30.3 45.4 30.4 45.5 30.5C45 30.7 44.5 31 43.9 31.2C43.4 31.5 42.8 31.7 42.2 32C40.3 32.8 38.3 33.5 36.3 34.1C34.7 34.1 33.2 34.2 31.6 34.5C36 32.7 40.4 30.9 44.4 28.3C48.1 25.8 51.6 23.2 55 20.4C58.8 17.3 62.8 14.6 66.8 11.7C67.6 11.1 72.4 8.09996 70.7 6.59996C69.8 5.79996 67.8 6.89996 67 7.29996C64.8 8.29996 63.1 9.39996 60.7 9.69996C56.1 10.3 51.7 10.9 47.6 13.4C45.6 14.6 43.8 16.2 42.3 17.9C42.2 17.9 42.2 17.9 42.1 17.9C39 19.8 35.5 20 32.1 21C29.2 21.9 26.3 23 23.6 24.5C22.9 24.8 22.3 25.2 21.7 25.6C23.1 24.1 24 22.2 25.1 20.5C25.9 19.3 27 18.3 27.6 17C28.1 15.8 28.5 14.6 28.9 13.3C29.6 10.9 30.3 8.39996 30.7 5.89996C30.9 4.99996 31.8 2.19996 30.8 1.29996C30.1 0.299964 29.3 1.09996 29 1.69996ZM44.1 31.6C47.6 31 51 30 54.5 29.3C58.5 28.5 62.5 27.4 66.6 26.7C70.1 26 73.7 25.4 77 24C80.1 22.6 82.9 20.8 86 19.3C82.9 21.4 79.3 22.9 76.1 24.5C72.3 26.4 68.2 27.8 64 28.5C60 29.2 55.9 29.8 51.9 30.7C49.8 31.1 47.7 31.7 45.6 32.1C44 32.4 42.4 32.9 40.8 33.1C41.2 32.9 41.6 32.8 42 32.6C42.6 32.3 43.4 32 44.1 31.6ZM53.1 27.9C52.8 28 52.6 28 52.3 28.1C51.1 28.5 50.1 29.2 48.9 29.5H48.8C50.1 28.9 51.4 28.4 52.7 27.9C52.8 27.9 52.9 27.9 53.1 27.9ZM57.8 26.2C57 26.5 56.3 26.9 55.6 27.2C55.1 27.4 54.6 27.5 54.1 27.6C53.9 27.6 53.6 27.6 53.4 27.7C53.9 27.5 54.4 27.3 54.9 27.2C55.9 26.8 56.9 26.5 57.8 26.2ZM86.4 18.2C85.6 18.4 84.8 18.5 84 18.6C82.5 18.9 81.1 19.1 79.6 19.4C76.6 19.9 73.6 20.3 70.7 21.2C68.7 21.8 66.9 22.9 64.9 23.8C63.1 24.6 61.2 25.2 59.3 25.7C61.7 24.9 64.1 23.9 66.3 22.7C70.2 20.7 73.9 19.1 78.3 18.4C80.2 18.1 82.1 17.9 83.9 17.7C84.4 17.7 85.6 17.3 86.1 17.7C86.3 17.8 86.4 18 86.4 18.2ZM86.5 18.8C83.3 20.2 80.4 22.2 77.2 23.6C73.5 25.3 69.6 25.8 65.7 26.6C61.7 27.4 57.7 28.4 53.6 29.2C50.7 29.8 47.7 30.6 44.8 31.2C45.8 30.8 46.7 30.3 47.7 29.9C48.3 29.8 48.9 29.7 49.5 29.5C50.4 29.2 51.2 28.7 52.1 28.4C52.8 28.1 53.6 27.9 54.3 27.7C56.1 27.4 57.8 27.1 59.6 26.6C62.6 25.8 65.5 25.1 68.4 24.2C71.1 23.4 73.9 22.7 76.7 21.9C79.8 20.9 82.8 19.8 86 19C86.1 19 86.1 18.9 86 18.9C83.2 19.5 80.5 20.5 77.8 21.4C74.9 22.3 71.9 23 69 23.9C66.3 24.7 63.6 25.6 60.8 26.2C59.1 26.6 57.5 27 55.8 27.3C56.9 26.8 58.1 26.3 59.3 25.9C64.1 24.6 68.2 21.8 73 20.7C76 20 79.1 19.6 82.2 19C82.8 18.9 85.2 18.7 86.5 18.2C86.5 18.5 86.5 18.7 86.5 18.8ZM38.6 33.8C39 33.7 39.5 33.5 39.9 33.3C41.5 33.1 43.1 32.6 44.7 32.3C46.9 31.9 49.2 31.3 51.4 30.9C55.8 30 60.3 29.4 64.7 28.5C68.9 27.7 73 26.2 76.8 24.2C80 22.5 83.6 21.1 86.6 19C86.6 19.1 86.6 19.3 86.6 19.4C86.5 19.7 85.9 19.9 85.7 20.1C83 21.9 80 23 77.4 24.7C73.4 27.3 69.6 29.2 64.9 30.2C60.7 31.1 56.5 31.8 52.3 32.3C47.9 32.8 43.5 33.3 39.1 33.7C38.9 33.8 38.7 33.8 38.6 33.8ZM61.1 37.5C60.9 37.2 60.9 36.8 61 36.5C61.2 36.1 61.5 35.9 61.8 35.7C62.4 35.3 63.3 35 64 35.5C64.5 35.9 64.4 36.6 64.3 37.2C64.2 37.4 64.1 37.6 64 37.8C63.8 38.2 63.4 38.4 63 38.6C62.2 38.7 61.4 38.2 61.1 37.5ZM94.3 33.4C94.2 33.1 94.2 32.8 94.2 32.5C94.2 32.2 94.4 32 94.6 31.8C94.9 31.6 95.3 31.4 95.7 31.4C96.2 31.3 96.6 31.5 97 31.7C97.3 31.9 97.5 32.2 97.5 32.6C97.5 33 97.4 33.3 97.2 33.6C96.9 34 96.5 34.2 96.1 34.3C96 34.3 95.9 34.4 95.9 34.5H95.8C95.5 34.5 95.2 34.3 95 34.1C94.6 34 94.4 33.7 94.3 33.4ZM88.7 35.1C88.6 35 88.5 35 88.4 35.1C88.4 35.1 88.4 35.1 88.3 35.2C86.7 35.1 84.5 34 85.2 32.2C85.8 30.7 87.4 29.9 88.9 30.2C89.7 30.4 90.3 31 90.6 31.7C90.9 32.4 90.8 33.3 90.2 33.8C90.1 33.9 90.1 34.1 90.2 34.2L90.3 34.3C90 34.7 89.4 35 88.7 35.1ZM88.6 35.7C88.6 35.6 88.6 35.6 88.7 35.5C89.5 35.5 90.2 35 90.6 34.4C90.7 34.4 90.8 34.5 90.9 34.5C91 34.5 91.1 34.6 91.2 34.7C91.3 34.9 91.4 35.1 91.4 35.3C91.4 35.7 91.2 36.2 90.9 36.5C90.9 36.5 90.9 36.5 90.8 36.6L90.7 36.7C90.7 36.7 90.6 36.7 90.6 36.8H90.5C90.3 36.9 90.1 36.9 89.9 36.8C89.8 36.8 89.7 36.8 89.6 36.8C89.5 36.8 89.4 36.7 89.3 36.7C89.3 36.7 89.2 36.7 89.2 36.6C89.2 36.6 89.2 36.6 89.1 36.6L89 36.5C89 36.5 89 36.5 88.9 36.4L88.8 36.3C88.8 36.3 88.8 36.3 88.8 36.2V36.1C88.8 36 88.8 36 88.8 36C88.8 36 88.8 36 88.8 35.9C88.6 35.8 88.6 35.8 88.6 35.7ZM81.7 37.5C81.8 37.3 81.9 37.2 82 37.1V37C82.4 36.5 82.6 35.9 82.7 35.3C82.7 35.3 82.7 35.3 82.8 35.3C83 35.2 83.2 35.1 83.4 35.1C83.6 35.1 83.7 35.1 83.9 35.1C84.3 35.2 84.6 35.4 84.9 35.7C84.9 35.8 85 36 85.2 36C85.3 36.2 85.4 36.3 85.5 36.5C85.8 37.1 85.8 37.8 85.2 38.2C85.1 38.3 85.1 38.4 85.2 38.4C84.3 39.5 82 39.1 81.7 37.5ZM77 35.7C76.9 34.6 77.4 33.5 78.4 32.9C79.6 32.2 81.1 32.6 81.9 33.7C82.6 34.7 82.2 36 81.5 36.9C81.4 37 81.4 37.1 81.5 37.2C80.7 37.9 79.6 38 78.7 37.7C77.8 37.3 77.2 36.5 77 35.7ZM69.8 38.5C69.7 37.9 69.8 37.2 70.1 36.7C70.7 35.9 71.8 35.5 72.8 35.8C73.7 36 74.5 36.7 74.1 37.7C74.1 37.8 74.1 38 74.3 38C74.4 38 74.5 38 74.6 37.9C74.6 37.8 74.6 37.7 74.6 37.6C74.8 38.4 73.9 39.1 73.2 39.5C72.4 39.9 71.3 40.3 70.5 39.8C70.1 39.4 69.8 38.9 69.8 38.5ZM73.8 53.4C73.9 53.4 73.9 53.3 73.9 53.3C74 53.3 74 53.3 74.1 53.3H74.2H74.3C74.4 53.3 74.4 53.3 74.5 53.4C74.5 53.4 74.6 53.4 74.6 53.5C74.7 53.5 74.7 53.6 74.8 53.6C74.8 53.6 74.8 53.6 74.9 53.7C74.9 53.7 75 53.8 75 53.9V54C75 54.1 75.1 54.1 75.1 54.2V54.3V54.4V54.5C75.1 54.5 75.1 54.5 75.1 54.6C75 54.6 75 54.7 74.9 54.7C75 54.7 74.8 54.7 74.9 54.7H74.8C74.7 54.7 74.6 54.9 74.6 55V55.1C74.6 55.1 74.6 55.1 74.5 55.1C74.4 55.1 74.5 55.1 74.4 55.1C74.3 55.1 74.2 55.1 74.2 55C74.1 55 74.1 54.9 74 54.9C74 54.9 73.9 54.9 73.9 54.8C73.8 54.8 73.8 54.7 73.7 54.7C73.7 54.7 73.7 54.6 73.6 54.6C73.6 54.6 73.6 54.5 73.5 54.5C73.5 54.4 73.4 54.4 73.4 54.3V54.2V54.1V54V53.9C73.4 53.9 73.4 53.9 73.4 53.8V53.7C73.4 53.7 73.4 53.7 73.4 53.6C73.4 53.5 73.5 53.5 73.5 53.4C73.5 53.4 73.5 53.3 73.6 53.3C73.7 53.5 73.7 53.5 73.8 53.4ZM69.4 51.9C69.9 51.6 70.6 51.6 71.1 51.9C71.5 52.3 71.8 52.8 71.9 53.3C71.9 53.4 72.1 53.5 72.2 53.5C72.3 54.2 71.9 54.8 71.3 55.2C70.7 55.6 70.1 55.8 69.4 55.7C68.8 55.7 68.3 55.3 68.2 54.7C68 53.6 68.5 52.5 69.4 51.9ZM67.7 52.3C67.8 52.3 67.9 52.3 68.1 52.3C67.8 52.7 67.7 53.2 67.6 53.6C67.5 53.2 67.4 52.7 67.1 52.4C67 52.3 66.9 52.2 66.8 52.1C67.1 52.2 67.4 52.3 67.7 52.3ZM63.1 54.5C64 54.1 64.9 53.3 64.7 52.3C64.8 52.2 64.9 52 65 51.8C65.8 51.9 66.5 52.3 66.8 53C67.2 53.7 67.1 54.5 66.8 55.2C66.5 55.8 65.9 56.2 65.3 56.3C64.7 56.4 64.1 56.4 63.5 56.1C63.2 56 63 55.8 62.9 55.5C62.7 55.2 62.7 54.9 62.6 54.6C62.7 54.6 62.9 54.5 63.1 54.5ZM59.7 52.5C59.6 52 59.7 51.5 59.9 51.1C60.1 51.2 60.2 50.9 60.1 50.8C60.2 50.6 60.3 50.5 60.4 50.4C61.1 49.5 62.4 49 63.4 49.8C63.8 50.1 64.1 50.5 64.3 50.9C64.4 51 64.4 51.2 64.4 51.3C64.3 51.4 64.3 51.6 64.4 51.7C64.4 51.8 64.3 51.9 64.2 52C64.1 52.1 64.1 52.3 64.2 52.4C64.2 52.4 64.3 52.4 64.3 52.5C64.3 53.4 63.3 54 62.5 54.2C62.1 54.3 61.7 54.4 61.2 54.3C60.7 54.2 60.2 53.8 59.9 53.4C59.8 53.2 59.7 53 59.6 52.8C59.8 52.6 59.8 52.5 59.7 52.5ZM51.7 49.8C52.7 49.9 53.7 50 54.8 50.2C56.1 50.4 58.1 50.3 59.4 50.9C59.2 51.3 59.1 51.8 59.1 52.3C58.6 52.2 58.1 52.1 57.7 52C56.8 51.8 56 51.6 55.2 51.3C54 50.9 52.8 50.4 51.7 49.8ZM63.3 69.2C63.2 69.2 63.2 69.2 63.3 69.2C60.3 68.2 57.6 66.7 55.2 64.7C53.2 62.9 51.6 60.8 49.7 58.8C47.7 56.7 45.4 54.9 43.4 53C41.7 51.5 39.9 50.2 37.9 49.3C35.3 48 32.6 46.7 29.9 45.4C28.4 44.6 26.6 44 25 43.2L24.9 43.1C24.8 43 24.8 43 24.7 42.9C25.1 43 25.4 43.1 25.8 43.2C28.3 44 30.8 44.9 33.3 46C34.1 46.3 34.9 46.7 35.7 47C36.7 47.6 37.7 48.1 38.7 48.7C40.3 49.6 41.7 50.8 43.1 52C46.1 54.4 49.2 56.8 51.4 60C51.5 60.1 51.6 60 51.5 59.9C49.4 56.7 46.2 54.2 43.2 51.8C41.7 50.6 40.2 49.3 38.5 48.4C38.2 48.2 37.8 48 37.5 47.8C41.5 49.6 45.4 51.6 48.2 54.9C51 58.1 53.3 61.6 56.4 64.5C58.3 66.3 60.7 68 63.3 69.2ZM66.1 71.5C61.7 70.1 57.2 67.5 53.4 64.9C49.7 62.4 46.5 59.3 43.3 56.3C37.9 51.3 31.8 47.4 25.5 43.5C26.1 43.8 26.8 44 27.4 44.3C30 45.5 32.5 46.9 35.1 48.1C38.3 49.6 41.2 51.1 43.8 53.6C45.8 55.5 48 57.2 49.9 59.2C53.5 63 56.4 66.5 61.3 68.6C62.9 69.3 64.6 69.8 66.4 70.3C66.6 70.4 66.7 70.4 66.9 70.5C67.7 70.7 68.5 71 69.3 71.2C69.4 71.2 69.4 71.2 69.5 71.3C70 71.5 70.6 71.6 71.1 71.8C71.3 71.9 71.5 71.9 71.6 72C73.3 72.5 75 73.1 76.3 74.1C76.1 74.2 76 74.3 75.8 74.4C75 74.7 74.6 74.3 73.9 74C73.5 73.8 73 73.7 72.6 73.6V73.5C70.3 72.7 68.2 72.1 66.1 71.5ZM53.1 68.1C49.5 66.7 46.3 64.7 43 62.4C41 60.9 38.9 59.5 36.8 58C34.6 56.5 33.1 54.6 31.5 52.5C30 50.4 28.6 48.2 27 46.2C26.4 45.4 25.9 44.6 25.3 43.9C28.1 46.2 30.5 49.1 32.9 51.6C36 54.9 39.3 57.9 42.8 60.7C46.3 63.3 49.4 66.1 53.1 68.1ZM52.6 67.6C48.7 65.4 45.4 62.2 41.9 59.5C38 56.5 34.8 53 31.4 49.5C29.8 47.8 28.2 46 26.4 44.4C32.9 48.5 39.1 52.8 44.7 58.1C47.7 60.9 50.8 63.8 54.4 65.9C57.6 67.8 61 69.8 64.6 71.2C62 70.6 59.4 70 56.8 69.3C55.9 69.1 55 68.8 54.1 68.5C53.6 68.2 53.1 67.9 52.6 67.6ZM20.5 41C20.7 41 21 41.1 21.2 41.1C21.4 41.2 21.6 41.4 21.8 41.5C22 41.6 22.2 41.8 22.4 41.9C22.9 42.3 23.4 42.6 23.9 42.8C24.2 43 24.5 43.2 24.8 43.4C26 44.8 27 46.4 28 47.8C29.5 50 31 52.2 32.6 54.3C35.5 58.1 39.8 60.3 43.6 63.1C46.9 65.6 50.5 67.5 54.4 68.9C58.4 70.7 62.7 71.6 67 72.5C67.1 72.5 67.1 72.4 67 72.3C63.4 71.5 59.8 70.7 56.3 69.4C56.4 69.4 56.6 69.5 56.7 69.5C61.3 70.6 66 71.6 70.5 73C67.2 72.3 63.7 72.2 60.3 71.8C55.6 71.2 50.7 69.9 46.8 67.1C44.9 65.7 43.2 64 41.4 62.7C39.4 61.2 37.3 59.9 35.3 58.4C31.6 55.5 29.1 51.7 26.6 47.8C24.9 45.2 23 42.7 20.5 41ZM28.3 13.3C27.3 15.6 26 17.7 24.4 19.7C22.6 21.9 20.8 24 19.5 26.6C19.5 26.7 19.5 26.7 19.6 26.7C18.4 27.6 17.2 28.6 16.2 29.7L16.1 29.8L16.2 29.6C17.2 28.3 18.1 26.9 18.9 25.4C20.3 22.8 22.2 20.8 23.9 18.4C25.9 15.7 27.4 12.8 28.5 9.69996C29 8.19996 29.3 6.59996 29.8 5.09996C30.1 4.09996 30.4 3.09996 30.5 1.99996C30.6 1.99996 30.7 2.09996 30.7 2.19996C30.9 2.39996 30.5 3.79996 30.5 3.99996C30.4 4.59996 30.3 5.19996 30.2 5.79996C29.9 7.59996 29.4 9.39996 28.9 11.2C28.7 11.9 28.5 12.6 28.3 13.3ZM21 25.7C20.6 26 20.1 26.3 19.7 26.6C21 23.9 23 21.7 24.9 19.4C26 18 27 16.4 27.9 14.8C27.8 15 27.8 15.2 27.7 15.4C27.1 17 26.2 18 25.2 19.3C23.7 21.3 22.8 23.7 21 25.7ZM69 6.79996C67 7.59996 65.3 8.89996 63.3 9.99996C61 11.2 58.5 11.7 56 12.2C54.1 12.6 52 12.9 50.2 13.7C48.3 14.6 46.7 16.1 45.2 17.5C42.2 20.4 39.6 23.7 36.7 26.8C36.1 27.4 35.5 28 34.9 28.6C33.1 30.2 31.2 31.7 29.3 33.1C27.7 34.2 26.1 35.5 24.2 36.2C24.5 35.9 24.8 35.7 25.1 35.4C28.7 32.2 32.5 29.3 35.9 26C39 23 41.2 19.1 44.4 16.2C47.9 13 52.2 11.3 56.8 10.5C58.8 10.2 61 10.2 63 9.59996C64.8 8.89996 67.1 6.79996 69 6.79996C69 6.69996 69 6.69996 69 6.79996ZM38.4 22.3C37.9 22.9 37.3 23.5 36.8 24.1C32.9 26.4 28.3 27.5 24 28.4C21.4 29 18.9 30 16.5 31.3C17 30.8 17.6 30.4 18.1 29.9C20.5 28.1 23.2 26.8 26 25.7C28.8 24.6 31.6 23.8 34.3 22.5C35.5 21.9 36.7 21.4 38 21C38.7 20.8 39.4 20.5 40.1 20.1C39.6 20.8 39 21.5 38.4 22.3ZM69.9 6.89996C67.8 8.69996 65.5 10.3 62.9 11.2C60.5 12 58.1 12.7 55.7 13.6C51.9 15 47.6 16.2 44.3 18.7C46 16.9 47.9 15 50.2 13.9C52.3 12.8 55 12.5 57.4 12C59.6 11.6 61.7 11.1 63.7 9.99996C65.7 8.89996 67.5 7.49997 69.7 6.69997C69.6 6.79997 69.8 6.89996 69.9 6.89996ZM70 7.69997C68.7 8.29997 67.6 9.19996 66.3 9.79996C66 9.89996 65.7 10.1 65.5 10.2C67.1 9.29996 68.6 8.19996 70 6.89996C70.1 7.19996 70.2 7.49996 70 7.69997ZM32.8 33.3C33.2 33.1 33.6 33 33.9 32.8C35.6 32.1 37.2 31.4 38.7 30.5C40.3 29.6 41.9 28.5 43.2 27.2C45.7 25.6 48.1 23.9 50.6 22.3C54.4 19.9 57.5 16.7 61.2 14.2C62.9 13 64.6 12 66.3 10.9C66.2 11 66.1 11 66.1 11.1C64.5 12.3 62.8 13.3 61.2 14.5C54.3 19.7 47.9 25.9 40.1 30C37.7 31.2 35.3 32.3 32.8 33.3ZM38.4 30.5C37.9 30.8 37.3 31 36.7 31.3C38.7 30.2 40.6 29 42.6 27.7C41.3 28.8 39.9 29.7 38.4 30.5ZM29.6 34.2C32.7 32.3 35.8 30.4 38.6 28C41.4 25.6 43.8 23 46.8 20.8C49.6 18.7 52.7 17.3 55.7 15.7C58.6 14.2 61.4 12.5 64.4 11C65.7 10.4 67 9.69996 68.2 8.99996C68.8 8.59996 69.3 8.29996 69.9 7.89996C69.6 8.39996 69.2 8.79996 68.7 9.19996C68.5 9.39996 68.3 9.49996 68.1 9.59996C65.7 11.2 63.2 12.6 60.9 14.2C58.3 16 55.9 18.3 53.4 20.2C50.8 22.2 47.9 23.7 45.2 25.6C45 25.7 44.8 25.9 44.6 26C45.4 25.3 46.1 24.5 46.9 23.7C52.3 18.2 59.3 14.8 65.9 11C66 11 65.9 10.8 65.8 10.9C59.5 14.5 52.9 17.7 47.6 22.8C46.4 23.9 45.4 25.2 44.2 26.3C40.6 28.7 37 31.1 33.1 32.9C31.9 33.4 30.7 33.8 29.6 34.2ZM28.8 34.5C30.4 33.4 32 32.1 33.3 30.7C35.1 28.8 36.7 27 38.6 25.2C40.3 23.6 41.4 21.6 43.1 20C46.7 16.6 52.2 15.2 56.8 13.5C59.3 12.6 61.9 12 64.2 10.9C62.9 11.6 61.6 12.3 60.3 13C56.8 15 53 16.6 49.5 18.8C46.2 20.9 43.3 23.4 40.4 26.1C37.1 29.3 33.2 31.7 29.4 34.2V34.3C29.4 34.3 29.4 34.3 29.5 34.3C29.3 34.3 29.1 34.4 28.8 34.5ZM27.2 35.2C26.1 35.8 25 36.2 23.8 36.5L23.9 36.4C25.1 36 26.3 35.3 27.3 34.6C29.4 33.2 31.4 31.8 33.4 30.2C33.6 30.1 33.7 29.9 33.9 29.7C32.2 31.7 30.2 33.4 28 34.8C27.7 34.9 27.5 35 27.2 35.1C27.1 35 27.2 35.1 27.2 35.2ZM22.8 37.3C23 37.1 23.2 36.9 23.5 36.8C24.1 36.7 24.7 36.5 25.3 36.3C24.4 36.6 23.6 36.9 22.8 37.3ZM18.1 32.6C20.8 31.4 23.7 31.2 26.6 30.5C28.6 30 30.4 29.2 32.2 28.3C30.5 29.8 28.7 31.2 27 32.7C25.7 33.8 24.4 35.1 23 36.4C22.9 36.4 22.8 36.5 22.7 36.5C22.6 36.5 22.6 36.6 22.7 36.6H22.8C22.1 37.2 21.4 37.7 20.6 38.2C20.1 38.4 19.6 38.6 19.1 38.8C19.2 38.7 19.1 38.6 19 38.7C17.4 39.6 15.3 39.7 13.5 39.9C11.3 40.1 9.2 39.7 7 39.7C6.9 39.7 6.8 39.9 7 39.9C9.2 40 11.3 40.3 13.5 40.1C14.4 40 15.3 39.9 16.2 39.8C16.2 39.8 16.2 39.8 16.1 39.8C16 39.8 16.1 39.8 16 39.8C15.2 40 14.4 40.2 13.6 40.4C10.7 40.4 7.9 40.2 5 39.9C6.1 39.3 7.2 38.7 8.3 38.1C8.1 38.3 7.9 38.4 7.7 38.5C7.5 38.7 7.3 38.8 7.1 39C6.9 39.1 6.7 39.3 6.6 39.5V39.6C6.7 39.7 6.7 39.7 6.9 39.7C6.9 39.7 6.9 39.7 6.9 39.6C6.9 39.6 6.9 39.6 6.8 39.6C6.8 39.6 6.8 39.6 6.7 39.6C6.8 39.4 7 39.3 7.2 39.2C7.4 39.1 7.6 38.9 7.8 38.8C8.2 38.4 8.7 38.1 9.2 37.7C9.2 37.7 9.2 37.7 9.2 37.6C9.3 37.5 9.4 37.5 9.5 37.4C9.5 37.5 9.6 37.5 9.7 37.5H9.8C9.9 37.3 10.1 37.2 10.2 37C12.9 35.3 15.5 33.9 18.1 32.6ZM14 33.5C14.6 33 15.3 32.7 16.1 32.4C17.1 32.1 18 31.7 19 31.3C21.2 30.5 23.4 30.5 25.6 30.3C25.8 30.3 25.9 30.2 26.1 30.2C25.9 30.3 25.6 30.3 25.4 30.4C22.9 30.9 20.4 31.2 18 32.3C15.7 33.3 13.6 34.5 11.5 35.9C11.8 35.6 12 35.3 12.3 35C12.8 34.4 13.4 33.9 14 33.5ZM15.8 31.9C18.9 30.1 22.3 28.8 25.8 28.1C28 27.6 30.2 27 32.4 26.1C33.8 25.6 35.2 25 36.5 24.3C35.6 25.2 34.7 26.1 33.8 26.9C32.6 27.6 31.3 27.9 30.1 28.5C28.3 29.4 26.3 29.9 24.3 30C22.3 30.1 20.5 30.3 18.6 31C17.6 31.4 16.7 31.7 15.7 32.1C15.5 32.2 15.3 32.3 15.1 32.4C15.3 32.4 15.5 32.2 15.8 31.9ZM25.6 25C30.7 22.9 36 21.5 40.9 19.2C40.7 19.4 40.6 19.6 40.5 19.7C39.5 20.4 38.2 20.7 37.1 21.1C35.8 21.6 34.5 22.2 33.2 22.8C30.6 24 27.8 24.7 25.1 25.8C22.5 26.8 20.1 28.1 17.9 29.8C17.1 30.4 16.4 31 15.7 31.7C15.4 31.9 15.1 32 14.9 32.2C18.1 29.3 21.5 26.7 25.6 25ZM17.1 29.4C19.3 27.1 22 25.6 24.8 24.1C27.7 22.6 30.8 21.5 34 20.7C36.6 20.1 39.1 19.7 41.5 18.4C41.4 18.6 41.2 18.7 41.1 18.9C35.9 21.3 30.3 22.7 25.1 25C21.3 26.6 18.1 29.1 15 31.7C15 31.6 15.1 31.6 15.1 31.5C15.3 31.3 15.4 31.1 15.6 31C15.6 31.1 15.7 31.2 15.8 31.1C15.8 31 15.9 30.8 15.9 30.7C16.3 30.3 16.7 29.8 17.1 29.4ZM27.6 4.99996C26.8 6.09996 26.2 7.19996 25.6 8.29996C24.2 10.6 22.8 12.9 21.5 15.3C20.3 17.5 19.1 19.7 18.2 22C17.4 24 16.9 26.2 16 28.2C16.3 26.3 16.8 24.4 17.5 22.6C18.6 20 20 17.5 21.3 14.9C22.6 12.2 24.2 9.69996 26 7.29996C26.4 6.49996 27 5.79996 27.6 4.99996ZM29.6 2.09996C29.2 4.59996 28.2 7.19996 27.1 9.39996C25.9 11.9 24.3 14.1 23 16.5C21.7 19.1 20 21.4 18.5 23.9C17.5 25.6 16.6 27.5 16 29.5C15.9 29.7 15.7 29.8 15.5 29.9C15.5 29.7 15.6 29.4 15.6 29.2C15.6 29 15.7 28.8 15.7 28.6C16.7 26.7 17.3 24.5 18 22.5C19 19.7 20.6 17.1 22 14.5C23.5 11.9 25.1 9.39996 26.6 6.79996C27.6 5.29996 29 3.89996 29.6 2.09996ZM30.2 1.89996C30 3.29996 29.7 4.59996 29.3 5.89996C28.9 7.19996 28.6 8.59996 28.2 9.89996C27.1 13 25.5 15.9 23.5 18.6C21.9 20.8 20.1 22.7 18.8 25.1C18.1 26.5 17.3 27.9 16.3 29.2C16.5 28.5 16.8 27.7 17.1 27C17.8 25.5 18.7 24 19.6 22.6C21.1 20.3 22.3 18 23.7 15.7C25 13.5 26.4 11.3 27.5 8.99996C28.6 6.79996 29.3 4.49996 29.8 1.99996C29.9 1.89996 30.1 1.79996 30.2 1.89996Z" fill="#E8D1BB" fill-opacity="0.68"/>
</svg>
